<?xml version="1.0" standalone="no"?><!DOCTYPE svg PUBLIC "-//W3C//DTD SVG 1.1//EN" "http://www.w3.org/Graphics/SVG/1.1/DTD/svg11.dtd"><svg t="1721034543239" class="icon" viewBox="0 0 1024 1024" version="1.1" xmlns="http://www.w3.org/2000/svg" p-id="20559" xmlns:xlink="http://www.w3.org/1999/xlink" width="48" height="48"><path d="M988.16 533.333333h-35.413333a214.613333 214.613333 0 0 0-27.093334 33.28c-12.373333 52.053333-1.92 93.653333-53.973333 118.613334-29.226667-6.826667-56.96-13.866667-85.333333-21.333334L742.4 405.333333a35.413333 35.413333 0 0 0-2.346667-8.106666 249.813333 249.813333 0 0 0-183.253333-149.333334A434.133333 434.133333 0 0 1 567.466667 192a58.026667 58.026667 0 0 0 0-29.013333A55.893333 55.893333 0 1 0 459.306667 192a450.56 450.56 0 0 1 10.666666 55.253333 246.826667 246.826667 0 0 0-177.706666 144.213334 34.133333 34.133333 0 0 0-2.133334 6.613333l-64 270.933333h-1.493333c-27.093333 16.64-93.44 22.826667-110.08-10.453333-6.4-52.053333-6.4-135.253333-81.28-106.666667-4.053333 10.453333-8.32 21.333333-12.373333 33.28a1995.306667 1995.306667 0 0 0 54.4 292.906667l14.72 14.506667a246.613333 246.613333 0 0 1 39.466666-4.053334C181.333333 836.48 75.306667 715.946667 192 715.946667l39.893333-7.04a36.053333 36.053333 0 0 0 20.053334 13.013333 38.613333 38.613333 0 0 0 8.533333 0 33.92 33.92 0 0 0 15.146667-3.84c-3.84 16-7.04 32-9.6 48.213333a482.986667 482.986667 0 0 0-5.333334 49.28c0 16.853333-1.066667 33.066667-1.066666 48.213334a36.693333 36.693333 0 0 0 73.173333 0v-44.373334c0-14.08 1.92-28.373333 4.053333-42.666666a441.386667 441.386667 0 0 1 21.333334-82.56c0-1.92 1.493333-3.84 2.346666-5.76a2056.106667 2056.106667 0 0 1 318.08 0 311.466667 311.466667 0 0 1 14.506667 69.973333c2.986667 31.36 1.28 68.693333 1.493333 104.746667a36.48 36.48 0 1 0 72.96 0c0-36.266667 0-71.253333-2.773333-111.786667 0-10.24-2.133333-21.333333-3.84-30.506667a36.906667 36.906667 0 0 0 24.533333-16.853333l26.24 4.266667c23.04 0 54.186667 2.133333 70.826667 18.56v48c-10.453333 33.28-27.093333 85.333333 4.053333 110.08a390.826667 390.826667 0 0 1 49.92-2.133334 45.226667 45.226667 0 0 1 8.32-16.64c10.453333-53.973333 21.333333-106.666667 33.28-157.866666C1002.666667 672.213333 1002.666667 595.413333 1002.666667 551.68a103.466667 103.466667 0 0 1-14.506667-18.346667z m-627.84-114.133333a174.933333 174.933333 0 0 1 115.413333-97.706667c0 18.56 0 37.333333 1.066667 55.893334a93.653333 93.653333 0 0 1-3.2 34.133333 64 64 0 0 1-15.146667 24.746667l-5.546666 4.906666-9.386667 8.106667c-6.4 5.333333-12.8 10.453333-18.773333 16.426667-12.16 11.093333-23.466667 23.04-34.773334 35.2a533.333333 533.333333 0 0 0-75.306666 112.64z m14.933333 234.666667a458.026667 458.026667 0 0 1 69.12-104.106667c9.6-10.453333 19.413333-21.333333 30.08-30.293333 4.906667-4.906667 10.453333-9.386667 16-14.08l8.106667-6.826667c3.84-3.2 7.893333-6.826667 11.52-10.453333a134.186667 134.186667 0 0 0 32.853333-53.333334 164.266667 164.266667 0 0 0 6.826667-56.96c0-18.986667 0-37.76 1.28-56.746666a176.64 176.64 0 0 1 120.106667 100.693333l24.746666 143.36c-6.4-9.813333-13.226667-19.626667-19.84-29.44A218.026667 218.026667 0 0 0 637.226667 490.666667a106.666667 106.666667 0 0 0-52.48-26.88 29.226667 29.226667 0 0 0-14.72 1.28 28.586667 28.586667 0 0 0-17.28 36.48v1.493333a139.52 139.52 0 0 0 28.586666 44.8c11.093333 12.586667 23.466667 23.466667 34.773334 35.413333A237.226667 237.226667 0 0 1 661.333333 651.733333c-43.946667-3.2-87.68-6.186667-131.413333-8.533333-50.986667 2.773333-103.253333 6.4-154.666667 10.24z" p-id="20560"></path></svg>