<?xml version="1.0" standalone="no"?><!DOCTYPE svg PUBLIC "-//W3C//DTD SVG 1.1//EN" "http://www.w3.org/Graphics/SVG/1.1/DTD/svg11.dtd"><svg t="1721034581808" class="icon" viewBox="0 0 1024 1024" version="1.1" xmlns="http://www.w3.org/2000/svg" p-id="21665" xmlns:xlink="http://www.w3.org/1999/xlink" width="48" height="48"><path d="M119.5 922l32.2-42h69.8c30.8-64.6 31.6-59.6 24.3-82.9 3.5-5.5 91-133.7 112.9-207.5 7.3-24.6 33.7-53.6 45.6-69 24.5-31.7 59.8-26.6 74.1-46.1 1.2-1.6 4.4-2.1 6.7-2.5 23-3.8 42.2-16.1 62.4-26.5 53.1-27.3 86.5-23.5 81.4-58.7-2.7-18.6-1.7-36.7 1.5-55.2 3.2-18.1 2.1-37.1 6.4-54.9 15.5-64.7 31.3-81.8 29.5-117.1-0.9-18 1.2-37.1 12.7-52.8 2.4-3.3 6.1-5.7 9.1-8.5 17.9 8 13.7 23.5 14.3 38.2l11.3-1.6c-1.2 12.6-2 24.4-9.6 34.4-16.4 21.5-22 46.7-23.3 72.7-1 19.8-5 38.8-8.5 58.2-3.8 20.7-1.4 42.6-0.7 64 0.5 14.4 8.2 14.8 6.7 71.2 4 8.3 10.3 14.1 20.7 10.3 1.1-1.7 2.4-2.8 2.3-3.7-2.3-17.6 6-27.4 22.3-32.5 4.8-1.5 8.7-6.1 11.6-8.2 13.2-1.3 25.4-1.2 36.9-4 13.9-3.3 22.1 1.6 29.1 13.1 8 13.1 16.7 25.4 17.1 42 0.8 32.6-23.6 44.7-37.8 53 7.5 103.9 10.8 92.7-4.9 141.9-1.3 4.2-9 6.5-14.2 10-13.5-22.9-17.9-46.1-21.3-69.6-0.7-5.1-0.2-5 27.5-79-8.5-4.4-15.8-8.9-23.5-12.2-18.5-8-34.8 2.8-34.7 23.4 0.1 45.9 9.3 55.4-1.4 104.4-4.9 22.7 0.3 80.4 2.6 102.6 7.5 72 7.7 77.2 14.4 82.4 12.1 9.5 17.5 23.6 26 35.6 3.4 4.8 8.2 8.6 12.6 12.7 1.3 1.2 3.5 1.5 4.8 2.6 22 19.4 48 21.9 75.9 20.5 28.6-1.4 28.2-3.1 59.9 39.1 0.6 0.8 0.3 2.3 0.4 3.5-16.6 3.7-770 3.3-785.1-1.3z m523.2-56c-64.5-84.2-118.8-177.8-202.1-249.4-15.6 22.5-30.4 43.6-45.1 64.8-4.5 6.6-8 14.1-13.4 19.8-16.6 17.1-18.8 25.8-74.4 136.8l-26.3-6.9c-16 17.1-18.8 23.4-21.5 48.5h449.7c-1-15.7-13.3-19.2-24-25.3-18.1-10.3-25.7 10.6-42.9 11.7z m-92.3-267.2c1.8 3.5 3.2 8.5 6.2 11.9 19.3 21.9 33.7 46.9 47.4 72.5 8.4 15.6 38.9 51.9 52.3 75.8 8.3 14.7 19.2 25.9 31.6 36.3-25.5-107.7-22.4-91-22.3-110 0-3.7 0.6-76.1 1.2-80.8 5.5-39.5-17.6-35.6-81.8-30.1-12.1 1.2-18.5 9.6-34.6 24.4z m0 0" fill="" p-id="21666"></path></svg>